<?xml version="1.0" encoding="UTF-8" standalone="no"?>
<svg
   xmlns:dc="http://purl.org/dc/elements/1.1/"
   xmlns:cc="http://creativecommons.org/ns#"
   xmlns:rdf="http://www.w3.org/1999/02/22-rdf-syntax-ns#"
   xmlns:svg="http://www.w3.org/2000/svg"
   xmlns="http://www.w3.org/2000/svg"
   xmlns:sodipodi="http://sodipodi.sourceforge.net/DTD/sodipodi-0.dtd"
   xmlns:inkscape="http://www.inkscape.org/namespaces/inkscape"
   width="279.99999999999994"
   height="279.06921190828183"
   viewBox="0 0 279.99999999999994 279.06921190828183"
   class="css-1j8o68f"
   version="1.1"
   id="svg112"
   sodipodi:docname="message.svg"
   inkscape:version="1.0.1 (c497b03c, 2020-09-10)">
  <metadata
     id="metadata116">
    <rdf:RDF>
      <cc:Work
         rdf:about="">
        <dc:format>image/svg+xml</dc:format>
        <dc:type
           rdf:resource="http://purl.org/dc/dcmitype/StillImage" />
        <dc:title></dc:title>
      </cc:Work>
    </rdf:RDF>
  </metadata>
  <sodipodi:namedview
     pagecolor="#ffffff"
     bordercolor="#666666"
     borderopacity="1"
     objecttolerance="10"
     gridtolerance="10"
     guidetolerance="10"
     inkscape:pageopacity="0"
     inkscape:pageshadow="2"
     inkscape:window-width="1280"
     inkscape:window-height="704"
     id="namedview114"
     showgrid="false"
     inkscape:zoom="1.8561703"
     inkscape:cx="148.6199"
     inkscape:cy="134.14717"
     inkscape:window-x="0"
     inkscape:window-y="23"
     inkscape:window-maximized="1"
     inkscape:current-layer="svg112" />
  <defs
     id="SvgjsDefs1001" />
  <g
     id="SvgjsG1007"
     featurekey="mugSzh-0"
     transform="matrix(0.3356504955573654,0,0,0.3356504955573654,49.908437777295994,-6.861368521088748)"
     fill="#39e991">
    <path
       d="M269.901,520.012c-57.669,0-111.893-21.743-152.684-61.224C76.387,419.27,53.9,366.715,53.9,310.806  c0-39.249,10.595-77.043,30.639-109.294c2.539-4.084,4.262-8.686,6.086-13.558c2.669-7.128,5.43-14.5,11.006-20.513  c5.995-6.463,14.548-10.975,22.819-15.338c5.171-2.728,10.056-5.304,14.111-8.22c10.918-7.85,22.739-14.729,35.136-20.448  c2.715-3.195,1.78-22.858,1.159-35.909c-1.262-26.535-2.566-53.974,8.125-64.365c1.83-1.778,4.159-2.719,6.735-2.719  c8.266,0,19.92,10.583,34.639,31.456c10.719,15.201,20.564,32.559,21.946,38.692c0.767,3.407,7.202,10.63,10.285,11.546  c-0.025-0.01,0.211,0.029,0.792,0.029c0.939,0,2.246-0.092,3.759-0.198c2.37-0.166,5.32-0.373,8.763-0.373  c12.182,0,23.696,2.95,34.831,5.803c10.569,2.708,20.553,5.266,30.576,5.266c0.002,0,0.003,0,0.004,0  c0.976,0,1.95-0.025,2.897-0.074c1.463-0.077,5.915-2.208,8.215-3.934c7.288-5.47,18.32-17.45,30-30.133  c24.665-26.784,40.39-43.047,50.765-43.047c3.009,0,5.597,1.339,7.285,3.77c5.501,7.916,7.727,13.728,8.822,23.032  c0.119,1.014,0.267,2.147,0.429,3.398c1.955,15.099,6.007,46.393-8.022,88.05c0.688,5.409,2.893,17.586,6.682,22.473  c26.433,34.106,43.513,86.942,43.513,134.607c0,55.909-22.486,108.464-63.315,147.982  C381.792,498.269,327.569,520.012,269.901,520.012z M189.718,29.442c-0.261,0-0.331,0.045-0.462,0.173  c-7.782,7.563-6.41,36.416-5.408,57.484c1.271,26.733,1.573,40.85-6.2,44.426c-11.942,5.495-23.325,12.112-33.831,19.666  c-4.56,3.278-9.952,6.122-15.166,8.873c-7.604,4.012-15.468,8.16-20.419,13.498c-4.369,4.711-6.704,10.947-9.177,17.55  c-1.898,5.068-3.86,10.309-6.871,15.152C73.026,237.086,62.9,273.237,62.9,310.806c0,110.394,92.86,200.206,207,200.206  c114.138,0,206.996-89.812,206.996-200.206c0-45.794-16.339-96.466-41.626-129.093c-6.312-8.14-8.412-25.975-8.631-27.981  l-0.108-0.996l0.324-0.949c13.745-40.157,9.827-70.414,7.943-84.955c-0.167-1.29-0.318-2.458-0.44-3.502  c-0.917-7.787-2.605-12.209-7.21-18.854c-7.219,0.088-29.41,24.187-44.104,40.143c-11.968,12.996-23.271,25.271-31.22,31.235  c-2.261,1.696-8.708,5.491-13.147,5.722c-1.103,0.058-2.235,0.087-3.366,0.087c-0.001,0-0.003,0-0.004,0  c-11.158,0-22.165-2.82-32.81-5.548c-10.596-2.714-21.551-5.521-32.598-5.521c-3.128,0-5.903,0.195-8.134,0.351  c-1.682,0.118-3.134,0.22-4.388,0.22c-1.36,0-2.417-0.125-3.328-0.394c-6.73-1.983-15.154-12.1-16.529-18.204  c-0.861-3.823-9.284-19.547-20.521-35.483C201.615,35.264,192.612,29.442,189.718,29.442z M146.376,337.107  c2.872-0.99,13.376-0.973-1.192-16.306c19.743,21.852,60.639-26.359,6.625-41.646c-14.552-4.12-54.904-2.627-49.145,23.494  c1.149,2.723,13.594,14.187,13.987,13.068c-16.126-2.393-5.368,21.263,11.091,23.369  C130.927,339.497,143.34,338.154,146.376,337.107z M147.298,367.527c-28.951-20.278-58.058,6.505-28.074,17.604  c21.262,7.866,23.812,4.07,43.088,7.132c12.892,2.051,87.161,6.028,88.427-17.066c-3.072,0.279-0.335,6.105,0,0  c-22.88,2.073-46.521,6.937-56.487,8.854c-7.403,1.424-15.094-6.262-24.295-9.434L147.298,367.527z M277.764,218.004  c20.125-1.15,36.992,24.537,36.992,24.537s-16.867,27.025-35.268,26.451c-18.402-0.575-17.564-7.076-30.478-10.159  C236.17,255.766,257.638,219.154,277.764,218.004z M272.037,230.88c2.735-3.559,10.227,10.701,11.343,1.125  c0.382-3.259-0.766-4.792-13.226-4.602c-12.458,0.192-18.017,27.144-10.158,31.629c6.06,3.457,10.461,9.375,8.539,1.731  C266.928,254.38,268.024,236.1,272.037,230.88z M148.327,195.657c15.333,0,20.316,9.968,20.701,15.528  c0.383,5.559-9.584,27.41-19.551,27.41c-4.682,0.002-17.148-6.528-18.4-16.577C129.663,210.674,140.195,195.657,148.327,195.657z   M146.213,202.388c2.868-4.107-11.005,2.926-10.032,15.579c0.973,12.65,13.892,18.328,11.058,14.466  c-10.453-14.236-2.735-32.595-5.552-27.331c2.824,2.129,8.767-2.471,2.064-3.585C143.329,201.448,145.959,202.751,146.213,202.388z   M162.432,205.89c-1.534,0-2.778,1.33-2.778,2.972c0,1.64,1.244,2.971,2.778,2.971c1.535,0,2.78-1.331,2.78-2.971  C165.212,207.22,163.967,205.89,162.432,205.89z"
       id="path103" />
  </g>
  <g
     id="SvgjsG1008"
     featurekey="PPkF4s-0"
     transform="matrix(3.716485447440618,0,0,3.716485447440618,-0.3716485502820567,170.82983765814237)"
     fill="#ffffff">
    <path
       d="M0.1 9.04 l3.18 0 l1.84 4.88 l2.66 -5.48 l2.7 5.5 l1.9 -4.9 l3.16 0 l-4.72 11.42 l-3.04 -5.84 l-3 5.84 z M20.03 19.74 q-1.37 -0.54 -2.35 -1.83 t-0.98 -3.37 t0.99 -3.36 t2.37 -1.82 t2.62 -0.54 q1.44 0 2.74 0.64 t2.13 1.88 t0.87 2.94 q0 0.52 -0.02 0.9 t-0.04 0.48 l-8.68 0 q0.24 1.16 1.2 1.58 t1.8 0.42 q1.08 0 1.72 -0.39 t1.1 -0.89 l2.32 1.34 q-1.88 2.56 -5.14 2.56 q-1.28 0 -2.65 -0.54 z M20.64 12.05 q-0.78 0.61 -0.88 1.49 l5.5 0 q-0.06 -0.52 -0.4 -1 t-0.91 -0.79 t-1.29 -0.31 q-1.24 0 -2.02 0.61 z M33.8 10.1 q0.38 -0.52 1.31 -0.93 t2.03 -0.41 q1.7 0 2.95 0.76 t1.91 2.07 t0.66 2.91 t-0.66 2.91 t-1.91 2.07 t-2.95 0.76 q-1.14 0 -2.01 -0.39 t-1.33 -0.99 l0 4.68 l-2.96 0 l0 -14.54 l2.96 0 l0 1.1 z M34.5 16.75 q0.82 0.87 2.2 0.87 q1.4 0 2.21 -0.87 t0.81 -2.25 q0 -1.34 -0.83 -2.22 t-2.19 -0.88 q-1.4 0 -2.21 0.83 t-0.81 2.27 q0 1.38 0.82 2.25 z M47.9 7.369999999999999 q-0.48 0.47 -1.16 0.47 q-0.7 0 -1.19 -0.47 t-0.49 -1.15 q0 -0.66 0.49 -1.13 t1.19 -0.47 q0.68 0 1.16 0.47 t0.48 1.13 q0 0.68 -0.48 1.15 z M45.24 9.02 l3 0 l0 10.98 l-3 0 l0 -10.98 z M53.68 19.51 q-1.38 -0.77 -2.19 -2.09 t-0.81 -2.88 t0.81 -2.87 t2.18 -2.08 t2.99 -0.77 q1.74 0 3.15 0.83 t2.25 2.37 l-2.7 1.06 q-0.48 -0.82 -1.18 -1.23 t-1.52 -0.41 q-1.3 0 -2.15 0.88 t-0.85 2.22 t0.86 2.22 t2.16 0.88 q1.8 0 2.78 -1.6 l2.54 1 q-1.58 3.24 -5.32 3.24 q-1.62 0 -3 -0.77 z M66.45 19.49 q-1.37 -0.77 -2.17 -2.09 t-0.8 -2.88 q0 -1.54 0.8 -2.86 t2.17 -2.09 t2.99 -0.77 t3 0.77 t2.19 2.09 t0.81 2.86 q0 1.56 -0.81 2.88 t-2.19 2.09 t-3 0.77 t-2.99 -0.77 z M67.92 11.83 q-0.7 0.41 -1.1 1.12 t-0.4 1.57 q0 0.9 0.39 1.61 t1.08 1.12 t1.55 0.41 q0.84 0 1.53 -0.41 t1.09 -1.13 t0.4 -1.6 q0 -0.86 -0.4 -1.57 t-1.09 -1.12 t-1.53 -0.41 q-0.82 0 -1.52 0.41 z"
       id="path106" />
  </g>
  <g
     id="SvgjsG1009"
     featurekey="uwAHB0-0"
     transform="matrix(0.7438985963516385,0,0,0.7438985963516385,35.24122397798781,263.92343567780426)"
     fill="#39e991">
    <path
       d="M8.34 5.48 q3.14 0 4.88 2.22 l-1.08 0.9 q-0.6 -0.9 -1.6 -1.41 t-2.2 -0.51 q-2.64 0 -4.3 1.74 t-1.7 4.5 q0 2.74 1.67 4.47 t4.33 1.77 q1.14 0 2.32 -0.57 t1.86 -1.63 l1.08 0.82 q-1.88 2.58 -5.26 2.58 q-3.28 -0.02 -5.27 -2.12 t-2.05 -5.32 q0 -3.26 2.05 -5.33 t5.27 -2.11 z M30.464000000000002 12.08 q1.54 0 2.38 -0.69 t0.84 -1.83 t-0.82 -1.82 t-2.44 -0.7 l-2.86 0 l0 5.04 l2.9 0 z M30.064 5.84 q4.9 0 4.94 3.72 q0 3.14 -3.62 3.64 l4.12 6.8 l-1.5 0 l-3.98 -6.72 l-2.46 0 l0 6.72 l-1.32 0 l0 -14.16 l3.82 0 z M47.848000000000006 5.84 l4.28 6.72 l4.38 -6.72 l1.48 0 l-5.2 8.06 l0 6.1 l-1.32 0 l0 -6.1 l-5.2 -8.06 l1.58 0 z M74.412 12.08 q1.28 0 2.1 -0.63 t0.84 -1.87 q0 -1.16 -0.82 -1.85 t-2.18 -0.69 l-3 0 l0 5.04 l3.06 0 z M74.07200000000002 5.84 q2.16 0 3.36 0.96 t1.24 2.78 q0 1.7 -1.16 2.69 t-3.02 1.01 l-3.14 0 l0 6.72 l-1.32 0 l0 -14.16 l4.04 0 z M101.03600000000002 5.84 l0 1.2 l-4.84 0 l0 12.96 l-1.32 0 l0 -12.96 l-4.84 0 l0 -1.2 l11 0 z M113.84000000000003 12.92 q0 2.7 1.66 4.45 t4.34 1.79 q2.7 0 4.34 -1.77 t1.66 -4.47 q0 -2.74 -1.64 -4.47 t-4.38 -1.77 q-2.68 0 -4.32 1.76 t-1.66 4.48 z M119.84000000000003 5.48 q2.16 0 3.82 0.95 t2.57 2.66 t0.93 3.83 q0 3.26 -2.06 5.33 t-5.26 2.11 q-3.22 0 -5.24 -2.09 t-2.08 -5.35 q0.02 -3.26 2.04 -5.32 t5.28 -2.12 z M155.28800000000004 5.84 l3.52 12.54 l0.04 0 l3.58 -12.54 l1.68 0 l3.58 12.54 l0.04 0 l3.52 -12.54 l1.36 0 l-4.12 14.14 l-0.02 0.02 l-1.6 0 l-3.58 -12.6 l-0.04 0 l-3.58 12.6 l-1.62 0 l-4.12 -14.16 l1.36 0 z M186.532 15.04 l6.5 0 l-3.2 -7.76 z M190.572 5.84 l5.96 14.16 l-1.48 0 l-1.54 -3.76 l-7.5 0 l-1.6 3.76 l-1.38 0 l6.18 -14.16 l1.36 0 z M210.116 5.84 l0 12.96 l6.6 0 l0 1.2 l-7.92 0 l0 -14.16 l1.32 0 z M230.34 5.84 l0 12.96 l6.6 0 l0 1.2 l-7.92 0 l0 -14.16 l1.32 0 z M257.904 5.84 l0 1.2 l-7.34 0 l0 5.04 l6.88 0 l0 1.2 l-6.88 0 l0 5.52 l7.66 0 l0 1.2 l-8.98 0 l0 -14.16 l8.66 0 z M280.628 5.84 l0 1.2 l-4.84 0 l0 12.96 l-1.32 0 l0 -12.96 l-4.84 0 l0 -1.2 l11 0 z"
       id="path109" />
  </g>
</svg>
